<svg width="10" height="10" viewBox="0 0 10 10" fill="none" xmlns="http://www.w3.org/2000/svg">
<path d="M3.21429 1.42918V0.357117C3.21429 0.262404 3.25191 0.17157 3.31889 0.104597C3.38587 0.0376248 3.47671 0 3.57143 0H6.42857C6.52329 0 6.61413 0.0376248 6.68111 0.104597C6.74809 0.17157 6.78571 0.262404 6.78571 0.357117V1.42918H9.64286C9.73758 1.42918 9.82842 1.46681 9.8954 1.53378C9.96237 1.60075 10 1.69159 10 1.7863C10 1.88101 9.96237 1.97185 9.8954 2.03882C9.82842 2.10579 9.73758 2.14342 9.64286 2.14342H0.357143C0.262423 2.14342 0.171582 2.10579 0.104605 2.03882C0.0376274 1.97185 0 1.88101 0 1.7863C0 1.69159 0.0376274 1.60075 0.104605 1.53378C0.171582 1.46681 0.262423 1.42918 0.357143 1.42918H3.21429ZM3.92857 1.42918H6.07143V0.714949H3.92857V1.42918ZM1.42857 10C1.33385 10 1.24301 9.96237 1.17603 9.8954C1.10906 9.82843 1.07143 9.7376 1.07143 9.64288V2.14342H8.92857V9.64288C8.92857 9.7376 8.89094 9.82843 8.82397 9.8954C8.75699 9.96237 8.66615 10 8.57143 10H1.42857ZM3.92857 7.8573C4.02329 7.8573 4.11413 7.81967 4.18111 7.7527C4.24809 7.68573 4.28571 7.59489 4.28571 7.50018V3.929C4.28571 3.83429 4.24809 3.74346 4.18111 3.67648C4.11413 3.60951 4.02329 3.57189 3.92857 3.57189C3.83385 3.57189 3.74301 3.60951 3.67603 3.67648C3.60906 3.74346 3.57143 3.83429 3.57143 3.929V7.50018C3.57143 7.59489 3.60906 7.68573 3.67603 7.7527C3.74301 7.81967 3.83385 7.8573 3.92857 7.8573ZM6.07143 7.8573C6.16615 7.8573 6.25699 7.81967 6.32397 7.7527C6.39094 7.68573 6.42857 7.59489 6.42857 7.50018V3.929C6.42857 3.83429 6.39094 3.74346 6.32397 3.67648C6.25699 3.60951 6.16615 3.57189 6.07143 3.57189C5.97671 3.57189 5.88587 3.60951 5.81889 3.67648C5.75191 3.74346 5.71429 3.83429 5.71429 3.929V7.50018C5.71429 7.59489 5.75191 7.68573 5.81889 7.7527C5.88587 7.81967 5.97671 7.8573 6.07143 7.8573Z" fill="#FF0000"/>
</svg>
