<svg width="12" height="10" viewBox="0 0 12 10" fill="none" xmlns="http://www.w3.org/2000/svg">
<path d="M5.97309 7.5L6.75336 6.67614L5.73094 5.59659L4.95067 6.42045V6.81818H5.59641V7.5H5.97309ZM8.93274 2.38636C8.86099 2.31061 8.787 2.31297 8.71076 2.39347L6.3565 4.87926C6.28027 4.95975 6.27803 5.03788 6.34978 5.11364C6.42152 5.18939 6.49552 5.18703 6.57175 5.10653L8.92601 2.62074C9.00224 2.54025 9.00448 2.46212 8.93274 2.38636ZM9.47085 6.60511V7.95455C9.47085 8.51799 9.28139 8.99976 8.90247 9.39986C8.52354 9.79995 8.06726 10 7.53363 10H1.93722C1.40359 10 0.947309 9.79995 0.568386 9.39986C0.189462 8.99976 0 8.51799 0 7.95455V2.04545C0 1.48201 0.189462 1.00024 0.568386 0.600142C0.947309 0.200047 1.40359 0 1.93722 0H7.53363C7.81614 0 8.07847 0.0591856 8.32063 0.177557C8.38789 0.210701 8.42825 0.265152 8.4417 0.340909C8.45516 0.421402 8.43498 0.490057 8.38117 0.546875L8.05157 0.894886C7.98879 0.961174 7.91704 0.980114 7.83632 0.951705C7.73318 0.923295 7.63229 0.909091 7.53363 0.909091H1.93722C1.64126 0.909091 1.38789 1.02036 1.17713 1.2429C0.966368 1.46544 0.860987 1.73295 0.860987 2.04545V7.95455C0.860987 8.26705 0.966368 8.53457 1.17713 8.7571C1.38789 8.97964 1.64126 9.09091 1.93722 9.09091H7.53363C7.8296 9.09091 8.08296 8.97964 8.29372 8.7571C8.50448 8.53457 8.60987 8.26705 8.60987 7.95455V7.05966C8.60987 6.99811 8.63004 6.94602 8.6704 6.90341L9.1009 6.44886C9.16816 6.37784 9.24664 6.36127 9.33632 6.39915C9.42601 6.43703 9.47085 6.50568 9.47085 6.60511ZM8.82511 1.36364L10.7623 3.40909L6.24215 8.18182H4.30493V6.13636L8.82511 1.36364ZM11.8117 2.30114L11.1928 2.95455L9.2556 0.909091L9.87444 0.255682C10 0.123106 10.1525 0.0568182 10.3318 0.0568182C10.5112 0.0568182 10.6637 0.123106 10.7892 0.255682L11.8117 1.33523C11.9372 1.4678 12 1.62879 12 1.81818C12 2.00758 11.9372 2.16856 11.8117 2.30114Z" fill="#000080"/>
</svg>
