<svg width="19" height="18" viewBox="0 0 19 18" fill="none" xmlns="http://www.w3.org/2000/svg">
<path d="M12.8998 17V15.2222C12.8998 14.2793 12.5416 13.3749 11.904 12.7081C11.2664 12.0413 10.4016 11.6667 9.49986 11.6667H4.39995C3.49822 11.6667 2.63343 12.0413 1.99582 12.7081C1.35821 13.3749 1 14.2793 1 15.2222V17" stroke="black" stroke-width="2" stroke-linecap="round" stroke-linejoin="round"/>
<path d="M6.95048 8.11111C8.82822 8.11111 10.3504 6.51923 10.3504 4.55556C10.3504 2.59188 8.82822 1 6.95048 1C5.07274 1 3.55054 2.59188 3.55054 4.55556C3.55054 6.51923 5.07274 8.11111 6.95048 8.11111Z" stroke="black" stroke-width="2" stroke-linecap="round" stroke-linejoin="round"/>
<path d="M17.9998 17V15.2222C17.9993 14.4344 17.7485 13.6691 17.287 13.0465C16.8255 12.4239 16.1793 11.9792 15.4499 11.7822M12.8999 1.11554C13.6312 1.31136 14.2795 1.75616 14.7424 2.37982C15.2053 3.00347 15.4565 3.7705 15.4565 4.55998C15.4565 5.34947 15.2053 6.1165 14.7424 6.74015C14.2795 7.36381 13.6312 7.80861 12.8999 8.00443" stroke="black" stroke-width="2" stroke-linecap="round" stroke-linejoin="round"/>
</svg>
