<svg width="18" height="18" viewBox="0 0 18 18" fill="none" xmlns="http://www.w3.org/2000/svg">
<path d="M2.99993 5.0001L9 8.00002L15.0001 5.0001L9 2.00019L2.99993 5.0001ZM9.48901 0.116247L17.4821 4.19213C17.9681 4.44012 18.1431 5.0021 17.8731 5.44909C17.779 5.60264 17.6439 5.72695 17.4831 5.80808L9.48901 9.88396C9.33734 9.96044 9.16986 10.0003 9 10.0003C8.83014 10.0003 8.66266 9.96044 8.51099 9.88396L0.517895 5.80808C0.0318893 5.56009 -0.143113 4.9981 0.126891 4.55112C0.221039 4.39757 0.356083 4.27326 0.516895 4.19213L8.51099 0.116247C8.815 -0.0387489 9.185 -0.0387489 9.48901 0.116247ZM9.48901 13.8818C9.33772 13.9596 9.17009 14.0001 9 14.0001C8.82991 14.0001 8.66228 13.9596 8.51099 13.8818L0.517895 9.73496C0.0318893 9.48297 -0.143113 8.91099 0.126891 8.457C0.220421 8.30144 0.355481 8.17504 0.516895 8.09201C0.633487 8.03136 0.762976 7.9997 0.8944 7.9997C1.02582 7.9997 1.15531 8.03136 1.2719 8.09201L8.51199 11.8469C8.815 12.0049 9.185 12.0049 9.48901 11.8469L16.7281 8.09201C16.8446 8.03153 16.9739 7.99996 17.1051 7.99996C17.2363 7.99996 17.3656 8.03153 17.4821 8.09201C17.9681 8.34401 18.1431 8.91599 17.8731 9.36998C17.7796 9.52554 17.6445 9.65193 17.4831 9.73496L9.48901 13.8818ZM9.48901 17.8817C9.33772 17.9595 9.17009 18 9 18C8.82991 18 8.66228 17.9595 8.51099 17.8817L0.517895 13.7348C0.0318893 13.4829 -0.143113 12.9109 0.126891 12.4569C0.220421 12.3013 0.355481 12.1749 0.516895 12.0919C0.633487 12.0312 0.762976 11.9996 0.8944 11.9996C1.02582 11.9996 1.15531 12.0312 1.2719 12.0919L8.51199 15.8468C8.815 16.0048 9.185 16.0048 9.48901 15.8468L16.7281 12.0919C16.8446 12.0314 16.9739 11.9998 17.1051 11.9998C17.2363 11.9998 17.3656 12.0314 17.4821 12.0919C17.9681 12.3439 18.1431 12.9159 17.8731 13.3699C17.7796 13.5254 17.6445 13.6518 17.4831 13.7348L9.48901 17.8817Z" fill="black"/>
</svg>
