<svg width="15" height="18" viewBox="0 0 15 18" fill="none" xmlns="http://www.w3.org/2000/svg">
<path d="M14.9091 5.9274C14.8646 5.82972 14.8024 5.74042 14.7253 5.6637L9.10031 0.2637C9.02039 0.189704 8.92737 0.12997 8.82562 0.0872999C8.7975 0.0746999 8.7675 0.0674999 8.7375 0.0575999C8.65906 0.0319735 8.57739 0.0165367 8.49469 0.0117C8.475 0.00990001 8.45719 0 8.4375 0H1.875C0.840937 0 0 0.8073 0 1.8V16.2C0 17.1927 0.840937 18 1.875 18H13.125C14.1591 18 15 17.1927 15 16.2V6.3C15 6.2811 14.9897 6.264 14.9878 6.2442C14.9832 6.16474 14.9671 6.08629 14.94 6.0111C14.9306 5.9823 14.9222 5.9544 14.9091 5.9274ZM11.7994 5.4H9.375V3.0726L11.7994 5.4ZM1.875 16.2V1.8H7.5V6.3C7.5 6.53869 7.59877 6.76761 7.77459 6.9364C7.9504 7.10518 8.18886 7.2 8.4375 7.2H13.125L13.1269 16.2H1.875Z" fill="black"/>
<path d="M3.75 9.00002H11.25V10.8H3.75V9.00002ZM3.75 12.6H11.25V14.4H3.75V12.6ZM3.75 5.40002H5.625V7.20002H3.75V5.40002Z" fill="black"/>
</svg>
