<svg width="10" height="10" viewBox="0 0 10 10" fill="none" xmlns="http://www.w3.org/2000/svg">
<path d="M6.64011 2.0148C6.56979 2.08503 6.47447 2.12448 6.37509 2.12448C6.27571 2.12448 6.18039 2.08503 6.11007 2.0148L5.37502 1.27975V3.12488C5.37502 3.22434 5.33551 3.31973 5.26518 3.39006C5.19485 3.46039 5.09946 3.4999 5 3.4999C4.90054 3.4999 4.80515 3.46039 4.73482 3.39006C4.66449 3.31973 4.62498 3.22434 4.62498 3.12488V1.27975L3.88993 2.0148C3.81883 2.08105 3.72481 2.11711 3.62765 2.1154C3.53049 2.11368 3.43779 2.07432 3.36908 2.00561C3.30037 1.9369 3.26101 1.8442 3.2593 1.74705C3.25758 1.64989 3.29365 1.55586 3.35989 1.48477L4.73498 0.109677C4.8053 0.0394474 4.90062 0 5 0C5.09938 0 5.1947 0.0394474 5.26502 0.109677L6.64011 1.48477C6.71034 1.55509 6.74979 1.6504 6.74979 1.74979C6.74979 1.84917 6.71034 1.94449 6.64011 2.0148ZM2.0148 6.11007C2.05165 6.14441 2.0812 6.18581 2.1017 6.23181C2.1222 6.27782 2.13322 6.32748 2.13411 6.37783C2.135 6.42818 2.12573 6.4782 2.10687 6.5249C2.08801 6.5716 2.05993 6.61402 2.02432 6.64963C1.98871 6.68524 1.94629 6.71331 1.89959 6.73218C1.8529 6.75104 1.80288 6.7603 1.75252 6.75941C1.70217 6.75852 1.65251 6.7475 1.60651 6.72701C1.5605 6.70651 1.5191 6.67695 1.48477 6.64011L0.109677 5.26502C0.0394474 5.1947 0 5.09938 0 5C0 4.90062 0.0394474 4.8053 0.109677 4.73498L1.48477 3.35989C1.55586 3.29365 1.64989 3.25758 1.74705 3.2593C1.8442 3.26101 1.9369 3.30037 2.00561 3.36908C2.07432 3.43779 2.11368 3.53049 2.1154 3.62765C2.11711 3.72481 2.08105 3.81883 2.0148 3.88993L1.27975 4.62498H3.12488C3.22434 4.62498 3.31973 4.66449 3.39006 4.73482C3.46039 4.80515 3.4999 4.90054 3.4999 5C3.4999 5.09946 3.46039 5.19485 3.39006 5.26518C3.31973 5.33551 3.22434 5.37502 3.12488 5.37502H1.27975L2.0148 6.11007ZM7.9852 6.64011C7.91497 6.56979 7.87552 6.47447 7.87552 6.37509C7.87552 6.27571 7.91497 6.18039 7.9852 6.11007L8.72025 5.37502H6.87512C6.77566 5.37502 6.68027 5.33551 6.60994 5.26518C6.53961 5.19485 6.5001 5.09946 6.5001 5C6.5001 4.90054 6.53961 4.80515 6.60994 4.73482C6.68027 4.66449 6.77566 4.62498 6.87512 4.62498H8.72025L7.9852 3.88993C7.91895 3.81883 7.88289 3.72481 7.8846 3.62765C7.88632 3.53049 7.92568 3.43779 7.99439 3.36908C8.0631 3.30037 8.1558 3.26101 8.25295 3.2593C8.35011 3.25758 8.44414 3.29365 8.51523 3.35989L9.89032 4.73498C9.96055 4.8053 10 4.90062 10 5C10 5.09938 9.96055 5.1947 9.89032 5.26502L8.51523 6.64011C8.44492 6.71034 8.3496 6.74979 8.25021 6.74979C8.15083 6.74979 8.05551 6.71034 7.9852 6.64011ZM6.64011 7.9852C6.56979 7.91497 6.47447 7.87552 6.37509 7.87552C6.27571 7.87552 6.18039 7.91497 6.11007 7.9852L5.37502 8.72025V6.87512C5.37502 6.77566 5.33551 6.68027 5.26518 6.60994C5.19485 6.53961 5.09946 6.5001 5 6.5001C4.90054 6.5001 4.80515 6.53961 4.73482 6.60994C4.66449 6.68027 4.62498 6.77566 4.62498 6.87512V8.72025L3.88993 7.9852C3.81883 7.91895 3.72481 7.88289 3.62765 7.8846C3.53049 7.88632 3.43779 7.92568 3.36908 7.99439C3.30037 8.0631 3.26101 8.1558 3.2593 8.25295C3.25758 8.35011 3.29365 8.44414 3.35989 8.51523L4.73498 9.89032C4.8053 9.96055 4.90062 10 5 10C5.09938 10 5.1947 9.96055 5.26502 9.89032L6.64011 8.51523C6.71034 8.44492 6.74979 8.3496 6.74979 8.25021C6.74979 8.15083 6.71034 8.05551 6.64011 7.9852Z" fill="#263032"/>
</svg>
